<?xml version="1.0" standalone="no"?>
<!DOCTYPE svg PUBLIC "-//W3C//DTD SVG 20010904//EN"
 "http://www.w3.org/TR/2001/REC-SVG-20010904/DTD/svg10.dtd">
<svg version="1.0" xmlns="http://www.w3.org/2000/svg"
 width="443.000000pt" height="443.000000pt" viewBox="0 0 443.000000 443.000000"
 preserveAspectRatio="xMidYMid meet">
<metadata>
Created by potrace 1.11, written by Peter Selinger 2001-2013
</metadata>
<g transform="translate(0.000000,443.000000) scale(0.100000,-0.100000)"
fill="#000000" stroke="none">
<path d="M2445 3719 c-120 -29 -279 -80 -595 -191 -499 -174 -663 -213 -900
-213 -148 0 -200 6 -365 39 -104 21 -366 125 -469 186 l-51 31 33 -29 c43 -38
199 -129 282 -166 297 -129 574 -153 930 -80 84 17 245 72 540 182 184 69 351
131 370 138 19 7 67 25 105 39 39 14 100 36 138 47 37 12 67 25 67 30 0 4 -1
8 -2 7 -2 0 -39 -9 -83 -20z"/>
<path d="M3160 3702 c-52 -7 -96 -15 -97 -16 -1 -1 -3 -92 -4 -202 -1 -186 -3
-201 -21 -213 -10 -6 -24 -9 -30 -5 -7 5 -8 2 -3 -6 6 -10 4 -12 -8 -7 -12 4
-14 2 -10 -10 5 -12 1 -14 -18 -8 -16 4 -20 3 -10 -3 9 -7 10 -12 2 -16 -6 -4
-11 -4 -11 0 0 4 -7 -1 -16 -12 -14 -17 -15 -17 -10 -1 3 11 2 16 -4 12 -6 -3
-10 -12 -10 -19 0 -7 -8 -20 -18 -29 -15 -13 -21 -14 -31 -4 -10 9 -11 8 -5
-8 4 -11 3 -17 -1 -13 -5 5 -15 -1 -22 -12 -8 -11 -19 -17 -25 -14 -6 4 -18
-3 -28 -15 -15 -21 -16 -11 -18 191 0 117 -1 237 -1 265 l-1 53 -27 -11 c-40
-16 -61 -24 -128 -50 -33 -12 -188 -75 -345 -139 -299 -123 -312 -128 -320
-126 -3 0 -18 -7 -32 -16 -15 -10 -34 -15 -44 -11 -12 4 -15 3 -10 -5 6 -10
-6 -17 -16 -10 -2 1 -14 -5 -28 -12 -14 -8 -27 -15 -30 -16 -7 -1 -38 -14 -88
-35 -23 -10 -42 -16 -42 -13 0 3 -8 0 -19 -5 -12 -7 -17 -18 -14 -33 3 -18 -2
-26 -24 -35 -82 -34 -102 -41 -107 -35 -3 3 -6 1 -6 -5 0 -6 -7 -14 -16 -17
-15 -6 -15 -4 -3 11 7 10 2 8 -12 -4 -28 -25 -44 -30 -34 -10 4 6 1 5 -7 -4
-7 -8 -28 -21 -46 -27 -37 -13 -49 0 -39 38 8 29 -6 33 -81 20 -199 -33 -413
-9 -614 69 -122 48 -175 77 -426 233 l-27 17 1 -932 c0 -668 4 -931 12 -930 6
2 50 28 99 59 102 66 332 186 344 179 4 -3 11 0 14 6 4 5 13 8 21 5 8 -3 14
-2 14 2 0 4 16 12 35 18 30 9 35 9 36 -5 0 -12 3 -11 9 4 5 11 9 16 9 11 1 -5
9 -2 18 5 11 10 14 10 9 2 -4 -7 -2 -13 3 -13 6 0 11 5 11 10 0 6 5 10 11 10
5 0 7 -4 4 -10 -3 -5 -2 -10 4 -10 5 0 11 5 13 12 3 8 7 6 11 -5 3 -9 3 -16
-1 -16 -4 1 -13 1 -21 0 -22 -2 -2 -16 22 -16 12 0 24 -5 25 -10 2 -6 8 -17
13 -26 5 -10 4 -20 -3 -27 -7 -7 -9 -12 -6 -12 4 0 13 7 21 15 13 13 16 13 21
-1 3 -8 2 -12 -4 -9 -5 3 -8 -4 -7 -15 1 -11 7 -20 15 -20 7 0 10 4 7 10 -3 5
-2 10 2 10 5 0 14 -10 22 -22 13 -21 13 -22 -2 -9 -11 8 -17 9 -17 2 0 -13 55
-43 64 -34 3 4 6 1 6 -6 0 -8 -8 -10 -22 -7 -13 3 -17 3 -10 0 6 -3 12 -10 12
-16 0 -6 -6 -6 -15 2 -8 7 -12 16 -9 21 3 5 0 9 -6 9 -7 0 -10 -7 -7 -15 4 -8
2 -17 -2 -20 -14 -8 -20 21 -8 35 9 10 9 11 0 6 -6 -3 -15 -1 -19 5 -5 8 -3 9
6 4 9 -5 11 -4 6 4 -4 6 -11 9 -16 6 -8 -5 -25 23 -22 37 1 4 -4 5 -12 2 -8
-3 -17 -1 -21 5 -3 6 -1 11 5 11 7 0 4 12 -6 30 -15 24 -20 27 -33 17 -12 -10
-13 -9 -6 2 5 10 4 12 -4 7 -7 -5 -10 -2 -9 6 2 7 -5 12 -14 12 -11 -1 -15 3
-11 10 4 8 3 8 -6 0 -10 -10 -10 -17 0 -35 7 -13 12 -30 11 -37 -2 -7 6 -4 17
7 24 24 37 26 47 9 4 -6 3 -8 -2 -5 -17 10 -34 -7 -24 -23 8 -13 10 -12 10 3
0 10 4 16 10 12 5 -3 7 -12 3 -20 -3 -8 -1 -15 4 -15 13 0 41 -53 36 -70 -4
-13 -3 -13 6 0 5 8 7 18 4 24 -3 5 -1 6 6 2 6 -4 9 -12 6 -17 -4 -5 1 -17 11
-26 15 -16 15 -17 -2 -25 -15 -6 -14 -7 6 -5 14 1 30 6 36 9 14 9 24 0 24 -21
0 -14 -2 -14 -10 -1 -6 9 -10 10 -10 3 0 -21 19 -24 29 -4 14 26 14 34 -1 25
-7 -4 -8 -3 -4 5 4 6 12 9 17 6 5 -4 9 -1 9 5 0 7 7 5 16 -4 8 -9 19 -14 24
-11 10 6 22 -24 14 -36 -3 -5 0 -9 6 -9 8 0 10 10 6 28 -5 18 -4 23 3 13 8
-12 13 -12 35 3 14 9 26 13 26 9 0 -4 7 3 16 15 8 12 20 20 25 17 5 -4 9 -2 9
3 0 6 8 13 17 16 10 4 14 4 10 0 -4 -4 0 -15 8 -24 13 -14 13 -17 0 -17 -8 0
-12 3 -10 7 2 3 -7 6 -20 6 -13 0 -21 -4 -19 -8 3 -5 9 -6 14 -3 5 3 11 1 15
-5 3 -5 -1 -10 -9 -10 -9 0 -16 -5 -16 -11 0 -5 4 -7 10 -4 5 3 20 8 31 10 30
6 32 10 20 33 -9 17 -8 20 7 18 9 -2 23 5 30 15 13 19 52 26 52 10 0 -5 -8 -8
-17 -6 -27 4 -36 -5 -22 -21 10 -13 8 -14 -15 -10 -22 4 -25 2 -17 -8 6 -7 8
-16 4 -19 -3 -4 -1 -7 4 -7 6 0 13 6 16 13 3 9 8 8 23 -3 18 -14 18 -14 4 4
-14 18 -13 19 2 13 10 -3 20 -1 24 5 5 7 2 8 -6 3 -8 -5 -11 -3 -8 6 3 8 11
13 17 11 8 -1 9 2 5 10 -6 9 -3 9 9 -1 15 -12 17 -10 17 17 0 37 12 47 42 32
20 -10 21 -9 6 2 -19 16 -14 61 8 79 11 9 19 8 35 -7 19 -17 20 -17 13 2 -7
17 -6 17 9 5 15 -12 17 -12 11 4 -5 13 -4 16 4 11 8 -5 10 -2 6 8 -3 9 -1 16
5 16 6 0 11 -6 11 -14 0 -8 5 -18 12 -22 7 -4 8 -3 4 5 -10 15 13 43 27 34 6
-4 7 -1 2 6 -5 9 -10 10 -18 2 -15 -15 -30 -14 -20 2 4 6 -4 4 -19 -5 -25 -16
-26 -16 -21 2 3 12 14 18 31 18 62 -1 71 2 67 20 -2 10 1 25 6 33 10 15 9 17
13 -46 1 -16 -3 -36 -8 -44 -8 -11 -8 -13 2 -7 9 5 12 -1 10 -26 l-3 -33 102
-39 c56 -22 99 -44 96 -49 -4 -6 -1 -7 6 -3 7 5 34 -2 61 -13 60 -26 93 -38
103 -39 4 -1 20 -8 35 -16 15 -8 51 -25 80 -37 28 -12 52 -26 52 -30 0 -5 6
-6 14 -3 8 3 17 0 21 -5 3 -6 11 -9 16 -6 5 4 9 1 9 -5 0 -7 7 -10 14 -7 10 4
13 1 9 -8 -4 -12 -10 -12 -32 5 -21 14 -28 16 -28 5 0 -8 5 -12 10 -8 5 3 6
-4 2 -18 -7 -23 -6 -23 7 -5 14 18 15 18 30 -3 10 -13 21 -19 31 -15 17 6 17
1 3 -59 -3 -13 -1 -11 6 6 7 15 16 27 21 27 4 0 5 -5 1 -12 -4 -6 -3 -8 4 -4
6 3 13 -2 15 -11 4 -17 5 -17 6 0 1 20 21 23 21 3 0 -8 7 -17 16 -20 14 -5 15
-4 4 9 -7 8 -9 15 -4 15 5 0 1 5 -9 11 -9 5 -22 7 -29 3 -7 -4 -8 -3 -4 5 4 6
4 11 -1 10 -21 -4 -31 2 -29 16 1 9 6 15 12 15 5 -1 7 -9 6 -18 -3 -14 -2 -14
14 -1 11 8 15 9 10 2 -5 -9 0 -13 13 -13 12 0 21 -4 21 -9 0 -5 8 -8 18 -6 9
1 25 -2 35 -7 12 -6 17 -5 17 4 0 10 2 10 9 0 4 -8 12 -13 17 -12 5 1 10 -3
12 -9 2 -6 -8 -8 -25 -5 -15 3 -25 3 -22 -1 15 -14 49 -13 59 3 8 15 10 15 10
-3 1 -11 4 -15 6 -8 4 9 19 7 57 -8 90 -36 211 -79 214 -75 2 1 4 89 5 193 2
152 5 190 15 186 7 -3 10 -10 6 -17 -4 -7 -1 -7 7 1 8 7 14 28 14 46 1 23 5
33 14 30 6 -3 12 -11 12 -18 0 -19 17 -28 26 -14 4 8 3 9 -4 5 -7 -4 -12 -1
-12 9 0 9 4 13 10 10 6 -3 7 1 3 10 -4 12 -8 13 -13 5 -5 -8 -10 -8 -14 -2
-10 16 21 22 34 6 15 -16 30 -19 30 -3 0 5 -4 7 -10 4 -5 -3 -10 -1 -10 4 0
14 15 14 43 0 19 -9 20 -8 6 3 -9 7 -14 19 -11 26 2 7 0 12 -5 11 -20 -3 -25
2 -13 16 11 13 16 13 42 -1 23 -12 33 -13 42 -4 8 8 7 9 -7 4 -16 -6 -16 -3 3
29 19 31 25 49 34 97 2 8 8 16 14 16 7 1 17 2 23 3 5 0 7 6 3 13 -4 6 -3 8 3
5 6 -4 11 -142 12 -379 2 -274 5 -375 14 -380 46 -28 362 -31 482 -4 135 31
335 112 440 178 11 7 61 39 112 72 51 32 93 63 94 70 4 52 3 1860 -1 1865 -7
10 -128 88 -218 140 -282 164 -547 223 -822 183z m-1573 -1827 c0 -17 -13 -20
-21 -6 -4 5 0 12 6 14 7 3 13 6 14 6 0 1 1 -6 1 -14z m-780 -125 c1 -11 -2
-18 -8 -15 -11 7 -12 35 -1 35 4 0 8 -9 9 -20z m523 -116 c0 -8 -19 -13 -24
-6 -3 5 1 9 9 9 8 0 15 -2 15 -3z m929 -180 c-6 -7 -15 -11 -21 -8 -5 3 -4 12
3 20 6 7 15 11 21 8 5 -3 4 -12 -3 -20z"/>
<path d="M1787 3269 c7 -7 15 -10 18 -7 3 3 -2 9 -12 12 -14 6 -15 5 -6 -5z"/>
<path d="M2816 3172 c-3 -5 1 -9 9 -9 8 0 12 4 9 9 -3 4 -7 8 -9 8 -2 0 -6 -4
-9 -8z"/>
<path d="M3016 1918 c3 -5 0 -16 -8 -25 -8 -10 -8 -14 -1 -10 6 4 13 1 15 -8
2 -10 7 -7 15 10 7 17 8 23 0 18 -6 -4 -8 0 -5 9 4 8 0 15 -8 15 -7 0 -11 -4
-8 -9z"/>
<path d="M2995 1830 c3 -5 8 -10 11 -10 2 0 4 5 4 10 0 6 -5 10 -11 10 -5 0
-7 -4 -4 -10z"/>
<path d="M1570 1776 c0 -2 7 -7 16 -10 8 -3 12 -2 9 4 -6 10 -25 14 -25 6z"/>
<path d="M693 1755 c0 -8 4 -12 9 -9 5 3 6 10 3 15 -9 13 -12 11 -12 -6z"/>
<path d="M1434 1759 c-4 -7 -3 -9 4 -5 5 3 12 0 15 -6 2 -7 7 -10 11 -7 4 3 0
12 -8 18 -11 9 -16 9 -22 0z"/>
<path d="M730 1749 c0 -5 5 -7 10 -4 6 3 10 8 10 11 0 2 -4 4 -10 4 -5 0 -10
-5 -10 -11z"/>
<path d="M865 1751 c-3 -5 -2 -12 3 -15 5 -3 9 1 9 9 0 17 -3 19 -12 6z"/>
<path d="M755 1741 c-3 -5 -2 -12 3 -15 5 -3 9 1 9 9 0 17 -3 19 -12 6z"/>
<path d="M1495 1741 c-3 -5 -2 -12 3 -15 5 -3 9 1 9 9 0 17 -3 19 -12 6z"/>
<path d="M1435 1731 c3 -5 0 -11 -7 -13 -7 -3 -5 -7 6 -11 9 -4 15 -3 11 2 -3
5 0 11 7 13 7 3 5 7 -6 11 -9 4 -15 3 -11 -2z"/>
<path d="M833 1665 c0 -7 6 -11 14 -8 7 3 13 6 13 8 0 2 -6 5 -13 8 -8 3 -14
-1 -14 -8z"/>
<path d="M1390 1666 c0 -17 27 -29 35 -15 4 5 1 8 -7 7 -7 -2 -12 3 -10 10 1
6 -2 12 -8 12 -5 0 -10 -6 -10 -14z"/>
<path d="M2810 1670 c0 -5 5 -10 10 -10 6 0 10 5 10 10 0 6 -4 10 -10 10 -5 0
-10 -4 -10 -10z"/>
<path d="M1775 1650 c-3 -6 1 -7 9 -4 18 7 21 14 7 14 -6 0 -13 -4 -16 -10z"/>
<path d="M836 1623 c-6 -14 -5 -15 5 -6 7 7 10 15 7 18 -3 3 -9 -2 -12 -12z"/>
<path d="M1360 1616 c0 -2 7 -7 16 -10 8 -3 12 -2 9 4 -6 10 -25 14 -25 6z"/>
<path d="M1169 1588 c-1 -7 -1 -19 0 -27 2 -7 -2 -10 -8 -6 -6 3 -11 1 -11 -5
0 -24 25 -2 27 23 2 26 -6 40 -8 15z"/>
<path d="M1346 1592 c-3 -5 1 -9 9 -9 8 0 12 4 9 9 -3 4 -7 8 -9 8 -2 0 -6 -4
-9 -8z"/>
<path d="M1022 1575 c4 -4 3 -16 -3 -26 -6 -13 -6 -19 1 -19 5 0 10 7 10 15 0
8 5 15 11 15 6 0 8 -7 5 -16 -3 -8 -2 -12 4 -9 16 10 11 24 -12 36 -13 6 -20
8 -16 4z"/>
<path d="M1125 1560 c-10 -11 -16 -22 -14 -24 2 -2 12 7 22 20 22 29 17 32 -8
4z"/>
<path d="M1299 1578 c-5 -16 -4 -46 2 -42 4 2 7 13 6 24 -1 17 -5 26 -8 18z"/>
<path d="M1213 1541 c0 -11 5 -18 9 -15 4 3 5 11 1 19 -7 21 -12 19 -10 -4z"/>
<path d="M2053 1535 c0 -8 4 -12 9 -9 5 3 6 10 3 15 -9 13 -12 11 -12 -6z"/>
<path d="M4367 1502 c-33 -69 -162 -189 -287 -267 -59 -37 -241 -127 -310
-153 -238 -90 -468 -130 -714 -126 -285 5 -519 65 -795 203 -251 127 -625 265
-826 307 -152 31 -254 45 -377 49 -47 2 -92 6 -99 10 -7 5 -10 4 -6 -2 4 -7
-19 -13 -61 -18 -110 -12 -214 -39 -344 -91 -91 -36 -243 -117 -254 -136 -8
-13 -12 -14 99 40 87 43 263 105 322 115 17 3 59 11 95 17 79 16 343 17 425 2
33 -6 74 -14 91 -17 58 -9 229 -56 329 -90 194 -64 293 -107 550 -233 286
-142 416 -192 565 -218 25 -4 47 -8 50 -9 3 -1 41 -5 85 -10 118 -12 229 -9
377 10 132 17 395 94 543 160 249 111 335 165 447 281 86 88 96 103 112 164
16 59 8 65 -17 12z"/>
<path d="M2094 1509 c0 -13 3 -15 13 -7 7 6 13 12 13 13 0 2 -6 5 -13 8 -7 3
-13 -3 -13 -14z"/>
<path d="M2115 1490 c-3 -6 1 -7 9 -4 18 7 21 14 7 14 -6 0 -13 -4 -16 -10z"/>
<path d="M2150 1460 c0 -5 5 -10 11 -10 5 0 7 5 4 10 -3 6 -8 10 -11 10 -2 0
-4 -4 -4 -10z"/>
<path d="M2207 1429 c4 -13 8 -18 11 -10 2 7 -1 18 -6 23 -8 8 -9 4 -5 -13z"/>
<path d="M2233 1405 c0 -8 4 -12 9 -9 4 3 8 9 8 15 0 5 -4 9 -8 9 -5 0 -9 -7
-9 -15z"/>
<path d="M2361 1393 c-1 -17 19 -27 31 -15 6 6 6 12 -3 17 -8 5 -10 4 -5 -3 4
-7 3 -12 -3 -12 -5 0 -12 6 -14 13 -4 9 -6 9 -6 0z"/>
<path d="M2275 1370 c-3 -5 -1 -10 4 -10 6 0 11 5 11 10 0 6 -2 10 -4 10 -3 0
-8 -4 -11 -10z"/>
<path d="M908 1365 c-2 -1 -30 -5 -63 -9 -32 -3 -64 -11 -70 -18 -7 -8 -7 -9
2 -4 13 7 225 9 259 2 12 -2 45 -7 74 -11 29 -4 62 -9 74 -11 12 -2 32 -6 46
-9 53 -10 236 -67 324 -102 100 -39 181 -77 447 -206 304 -148 515 -229 657
-253 12 -2 48 -8 80 -14 255 -44 526 -26 823 55 179 49 403 143 524 220 47 29
3 26 -55 -4 -8 -5 -42 -16 -75 -25 -33 -10 -73 -24 -90 -31 -62 -27 -379 -115
-465 -129 -19 -3 -46 -8 -60 -10 -84 -16 -301 -21 -400 -11 -25 2 -67 7 -95
10 -47 5 -122 17 -190 30 -59 12 -211 56 -280 82 -62 23 -353 146 -607 257
-18 8 -64 26 -103 41 -38 15 -79 31 -90 36 -62 27 -227 72 -345 95 -72 13
-312 28 -322 19z"/>
<path d="M2376 1348 c3 -5 10 -6 15 -3 13 9 11 12 -6 12 -8 0 -12 -4 -9 -9z"/>
<path d="M265 1260 c-3 -5 -1 -10 4 -10 6 0 11 5 11 10 0 6 -2 10 -4 10 -3 0
-8 -4 -11 -10z"/>
</g>
</svg>
